<svg width="47" height="43" viewBox="0 0 47 43" fill="none" xmlns="http://www.w3.org/2000/svg">
<path d="M46.6491 19.8961C44.7571 15.7929 41.9859 12.1559 38.5318 9.2428L44.4695 3.30514L41.6984 0.532135L35.2496 6.97505C31.6803 4.91042 27.6229 3.83995 23.4996 3.87501C8.81215 3.87501 2.0696 16.1361 0.350187 19.8961C0.119374 20.4 -0.000102997 20.9477 -0.000102997 21.502C-0.000102997 22.0562 0.119374 22.6039 0.350187 23.1078C2.2422 27.2111 5.01341 30.8481 8.46748 33.7611L2.53177 39.6988L5.30085 42.4679L11.7496 36.025C15.319 38.0896 19.3763 39.1601 23.4996 39.125C38.1871 39.125 44.9297 26.8639 46.6491 23.1039C46.8795 22.6006 46.9987 22.0535 46.9987 21.5C46.9987 20.9465 46.8795 20.3995 46.6491 19.8961ZM3.91631 21.5216C5.38506 18.3001 11.1484 7.79168 23.4996 7.79168C26.5734 7.77371 29.607 8.4908 32.3474 9.88318L28.8909 13.3396C27.0108 12.0914 24.7567 11.5321 22.5111 11.7566C20.2656 11.9811 18.1668 12.9757 16.5711 14.5714C14.9753 16.1672 13.9808 18.2659 13.7562 20.5115C13.5317 22.7571 14.091 25.0112 15.3393 26.8913L11.2679 30.9627C8.13529 28.4117 5.62177 25.1838 3.91631 21.5216ZM29.3746 21.5C29.3746 23.0582 28.7557 24.5525 27.6539 25.6543C26.5521 26.756 25.0578 27.375 23.4996 27.375C22.6272 27.3716 21.7669 27.1708 20.9832 26.7875L28.7871 18.9836C29.1704 19.7673 29.3713 20.6276 29.3746 21.5ZM17.6246 21.5C17.6246 19.9419 18.2436 18.4475 19.3454 17.3458C20.4472 16.244 21.9415 15.625 23.4996 15.625C24.3721 15.6284 25.2324 15.8292 26.0161 16.2125L18.2121 24.0165C17.8289 23.2327 17.628 22.3724 17.6246 21.5ZM23.4996 35.2083C20.4259 35.2263 17.3923 34.5092 14.6519 33.1168L18.1084 29.6604C19.9885 30.9086 22.2426 31.4679 24.4881 31.2434C26.7337 31.0189 28.8325 30.0244 30.4282 28.4286C32.024 26.8328 33.0185 24.7341 33.243 22.4885C33.4676 20.2429 32.9083 17.9888 31.66 16.1087L35.7294 12.0393C38.8682 14.5926 41.3832 17.8282 43.083 21.5C41.5868 24.745 35.8215 35.2083 23.4996 35.2083Z" fill="#BDBDBD"/>
</svg>
