<svg width="19" height="19" viewBox="0 0 19 19" fill="none" xmlns="http://www.w3.org/2000/svg">
<path d="M18.7679 17.6492L14.0424 12.9237C15.3302 11.3488 15.9633 9.33913 15.8109 7.31046C15.6584 5.28179 14.7321 3.38931 13.2235 2.02447C11.7149 0.659631 9.73938 -0.0731505 7.70563 -0.0223003C5.67188 0.0285499 3.73547 0.859141 2.29694 2.29767C0.858408 3.7362 0.0278175 5.67261 -0.0230327 7.70636C-0.0738829 9.74011 0.658898 11.7156 2.02374 13.2242C3.38858 14.7329 5.28106 15.6592 7.30973 15.8116C9.3384 15.964 11.3481 15.3309 12.923 14.0431L17.6485 18.7686C17.7978 18.9128 17.9977 18.9926 18.2053 18.9908C18.4129 18.989 18.6114 18.9057 18.7582 18.759C18.905 18.6122 18.9883 18.4136 18.9901 18.206C18.9919 17.9985 18.9121 17.7985 18.7679 17.6492ZM7.91649 14.2506C6.66388 14.2506 5.43939 13.8791 4.39788 13.1832C3.35637 12.4873 2.54461 11.4982 2.06526 10.3409C1.5859 9.18362 1.46048 7.9102 1.70485 6.68165C1.94923 5.45311 2.55242 4.32462 3.43815 3.43888C4.32388 2.55315 5.45238 1.94996 6.68092 1.70559C7.90947 1.46121 9.18289 1.58663 10.3402 2.06599C11.4974 2.54534 12.4866 3.3571 13.1825 4.39861C13.8784 5.44013 14.2498 6.66461 14.2498 7.91723C14.2479 9.59635 13.5801 11.2062 12.3928 12.3935C11.2054 13.5808 9.59562 14.2487 7.91649 14.2506Z" fill="#BDBDBD"/>
</svg>
